{"accessors":[{"bufferView":2,"componentType":5126,"count":140,"max":[1.7136199474334717,1.3962899446487427,1.5705900192260742],"min":[-1.758389949798584,-1.3962899446487427,-0.009530000388622284],"type":"VEC3"},{"bufferView":2,"byteOffset":1680,"componentType":5126,"count":140,"max":[0.5716992020606995,0.9974745512008667,0.6839378476142883],"min":[-0.5679982304573059,-0.9974745512008667,-0.8683360815048218],"type":"VEC3"},{"bufferView":1,"componentType":5126,"count":140,"max":[0.9883700013160706,0.9860600233078003],"min":[0.019339999184012413,0.01803000085055828],"type":"VEC2"},{"bufferView":0,"componentType":5125,"count":156,"type":"SCALAR"}],"asset":{"extras":{"author":"RunemarkStudio (https://sketchfab.com/runemarkstudio)","license":"CC-BY-4.0 (http://creativecommons.org/licenses/by/4.0/)","source":"https://sketchfab.com/3d-models/origami-crane-f0fd238aa50e4406a32ac7834c3ba376","title":"Origami Crane"},"generator":"Sketchfab-12.68.0","version":"2.0"},"bufferViews":[{"buffer":0,"byteLength":624,"name":"floatBufferViews","target":34963},{"buffer":0,"byteLength":1120,"byteOffset":624,"byteStride":8,"name":"floatBufferViews","target":34962},{"buffer":0,"byteLength":3360,"byteOffset":1744,"byteStride":12,"name":"floatBufferViews","target":34962}],"buffers":[{"byteLength":5104,"uri":"data:application/octet-stream;base64,"}],"materials":[{"doubleSided":true,"name":"Material","pbrMetallicRoughness":{"baseColorFactor":[0.009871280466835296,0.19832637255010477,0.6626336979366761,1],"metallicFactor":0,"roughnessFactor":0.6}}],"meshes":[{"name":"Crane_0","primitives":[{"attributes":{"NORMAL":1,"POSITION":0,"TEXCOORD_0":2},"indices":3,"material":0,"mode":4}]}],"nodes":[{"children":[1],"matrix":[1,0,0,0,0,2.220446049250313e-16,-1,0,0,1,2.220446049250313e-16,0,0,0,0,1],"name":"Sketchfab_model"},{"children":[2],"name":"Root"},{"children":[3],"name":"Crane"},{"mesh":0,"name":"Crane_0"}],"scene":0,"scenes":[{"name":"Sketchfab_Scene","nodes":[0]}]}